<?xml version="1.0" encoding="utf-8"?>
<!-- Generator: Adobe Illustrator 24.1.0, SVG Export Plug-In . SVG Version: 6.00 Build 0)  -->
<svg version="1.1" id="Capa_1" xmlns="http://www.w3.org/2000/svg" xmlns:xlink="http://www.w3.org/1999/xlink" x="0px" y="0px"
	 viewBox="0 0 600 600" style="enable-background:new 0 0 600 600;" xml:space="preserve">
<path d="M299.7,64.7c-7.5,0-11.6,2.6-16,5.1c-4.5,2.5-8.8,5.4-13,8.2s-8.2,5.6-11.4,7.7c-2.3,1.5-4.5,2.5-5.2,2.9h0
	c-0.6,0-3.1,0.2-5.9,0.1c-3.8-0.2-8.7-0.7-13.8-1.1c-5-0.4-10.2-0.7-15.3-0.6c-5.1,0.1-10-0.1-16.5,3.7c-6.5,3.8-8.7,8-11.4,12.4
	c-2.6,4.4-5,9.1-7.1,13.6s-4.2,9-6,12.4c-1.3,2.5-2.7,4.5-3,5.1c-0.6,0.4-2.6,1.8-5.1,3c-3.4,1.8-7.8,3.8-12.4,6
	c-4.6,2.2-9.3,4.5-13.6,7.1c-4.4,2.6-8.6,4.9-12.4,11.4s-3.6,11.3-3.7,16.4c-0.1,5.1,0.3,10.2,0.7,15.3c0.4,5,0.8,9.9,1,13.7
	c0.1,2.8-0.1,5.2-0.1,5.9c-0.3,0.6-1.4,2.9-2.9,5.3c-2.1,3.2-4.9,7.1-7.7,11.3c-2.9,4.2-5.8,8.5-8.2,13c-2.5,4.5-5.1,8.6-5.1,16.1
	s2.6,11.6,5.1,16c2.5,4.5,5.3,8.8,8.2,13c2.9,4.2,5.7,8.1,7.7,11.3c1.5,2.4,2.6,4.6,2.9,5.2c0,0.7,0.2,3.1,0.1,5.9
	c-0.2,3.8-0.6,8.7-1,13.7c-0.4,5-0.8,10.3-0.7,15.4c0.1,5.1-0.1,9.9,3.7,16.4s8,8.7,12.4,11.4c4.4,2.6,9.1,4.9,13.6,7.1
	s9,4.2,12.4,6c2.4,1.3,4.4,2.6,5,3c0.2,0.3,0.6,1,1.2,1.9l-52.9,91.7c-2.6,4.5-2.5,10,0.2,14.3c2.7,4.4,7.6,6.9,12.7,6.6l42.2-2.6
	l18.9,37.9c2.3,4.6,6.9,7.6,12.1,7.7c5.1,0.2,9.9-2.5,12.5-7l52.9-91.6c2.8,1.9,5.7,3.7,8.6,5.4c4.5,2.5,8.5,5.1,16,5.1
	s11.6-2.6,16-5.1c3-1.6,5.8-3.5,8.6-5.4l52.9,91.6c2.6,4.4,7.4,7.1,12.5,7c5.1-0.2,9.8-3.1,12.1-7.7l18.9-37.9l42.2,2.6
	c5.1,0.3,10-2.2,12.7-6.6c2.7-4.4,2.8-9.9,0.2-14.3L423,385c0.6-0.9,1-1.6,1.2-1.9c0.6-0.4,2.6-1.7,5-3c3.4-1.8,7.8-3.8,12.4-6
	c4.6-2.2,9.3-4.4,13.6-7.1c4.4-2.6,8.6-4.9,12.4-11.4s3.6-11.3,3.7-16.4c0.1-5.1-0.3-10.3-0.7-15.4c-0.4-5-0.8-9.9-1-13.7
	c-0.1-2.8,0.1-5.4,0.1-6c0.4-0.7,1.4-2.8,2.9-5.1c2.1-3.2,4.9-7.2,7.7-11.3s5.8-8.5,8.2-13c2.5-4.5,5.1-8.5,5.1-16
	c0-7.5-2.6-11.6-5.1-16.1c-2.5-4.5-5.4-8.8-8.2-13c-2.9-4.2-5.6-8.1-7.7-11.3c-1.5-2.3-2.5-4.5-2.9-5.2v0c0-0.7-0.2-3.1-0.1-6
	c0.2-3.8,0.6-8.7,1-13.7c0.4-5,0.8-10.2,0.7-15.3c-0.1-5.1,0.1-9.9-3.7-16.4s-8-8.7-12.4-11.4c-4.4-2.6-9.1-5-13.6-7.1
	c-4.6-2.2-9-4.2-12.4-6c-2.5-1.3-4.5-2.7-5.1-3c-0.4-0.6-1.8-2.6-3-5.1c-1.8-3.4-3.8-7.8-6-12.4s-4.5-9.3-7.1-13.6
	c-2.6-4.4-4.9-8.6-11.4-12.4c-6.5-3.8-11.3-3.6-16.4-3.7c-5.1-0.1-10.2,0.2-15.3,0.6c-5,0.4-10,0.9-13.8,1.1
	c-2.8,0.1-5.3-0.1-5.9-0.1h0c-0.7-0.4-2.9-1.4-5.2-2.9c-3.2-2.1-7.2-4.9-11.4-7.7c-4.2-2.9-8.5-5.8-13-8.2
	C311.2,67.4,307.2,64.7,299.7,64.7L299.7,64.7z M299.7,93.2c0.7,0.2,1.6,0.6,2.6,1.1c2.9,1.6,6.7,4.1,10.6,6.8c3.9,2.7,8,5.5,12,8.1
	s7.4,5,13,6.5s9.8,1.2,14.5,1c4.8-0.2,9.9-0.7,14.6-1.1c4.8-0.4,9.3-0.6,12.5-0.6c1.1,0,2,0.2,2.7,0.3c0.5,0.6,1.1,1.3,1.7,2.3
	c1.7,2.8,3.8,6.8,5.8,11.1c2.1,4.3,4.2,9,6.4,13.2s3.9,8,8,12.1c4.2,4.2,7.9,5.9,12.1,8.1c4.2,2.2,8.8,4.3,13.1,6.3
	c4.3,2.1,8.4,4.1,11.2,5.8c1,0.6,1.7,1.2,2.2,1.6c0.1,0.7,0.3,1.7,0.4,2.8c0.1,3.3-0.2,7.8-0.6,12.6c-0.4,4.8-0.8,9.8-1.1,14.5
	c-0.2,4.8-0.6,8.9,0.9,14.6c1.5,5.7,3.9,9,6.5,13s5.5,8.1,8.2,12s5.2,7.8,6.8,10.6c0.6,1,0.9,1.9,1.1,2.5c-0.2,0.7-0.5,1.5-1.1,2.5
	c-1.6,2.8-4.1,6.7-6.8,10.6s-5.7,8.1-8.2,12.1s-5,7.4-6.5,13c-1.5,5.7-1.1,9.8-0.9,14.5c0.2,4.8,0.7,9.7,1.1,14.5
	c0.4,4.8,0.7,9.4,0.6,12.6c0,1.1-0.2,2-0.3,2.7c-0.6,0.5-1.3,1.1-2.3,1.7c-2.8,1.7-6.9,3.7-11.2,5.8c-4.3,2.1-8.9,4.2-13.1,6.4
	c-4.2,2.2-8,3.9-12.1,8c-4.2,4.2-5.9,7.9-8,12.1c-2.2,4.2-4.3,8.8-6.4,13.1c-2.1,4.3-4.1,8.4-5.8,11.2c-0.6,1-1.2,1.7-1.7,2.2
	c-0.7,0.1-1.6,0.3-2.7,0.3c-3.3,0.1-7.8-0.2-12.5-0.6c-4.8-0.4-9.9-0.9-14.6-1.1c-4.8-0.2-8.8-0.6-14.5,0.9c-5.7,1.5-9,3.9-13,6.5
	c-4,2.6-8.1,5.5-12,8.2c-3.9,2.7-7.8,5.2-10.6,6.7c-1,0.6-1.9,0.9-2.6,1.1c-0.7-0.3-1.6-0.6-2.6-1.1c-2.9-1.6-6.7-4-10.6-6.7
	c-3.9-2.7-8-5.6-12-8.2c-4-2.6-7.4-5-13-6.5c-5.7-1.5-9.8-1.2-14.5-0.9c-4.8,0.2-9.9,0.7-14.6,1.1c-4.8,0.4-9.3,0.6-12.5,0.6
	c-1.1,0-2-0.2-2.7-0.3c-0.5-0.6-1.1-1.3-1.7-2.2c-1.7-2.8-3.8-6.9-5.8-11.2c-1.4-2.9-2.8-5.8-4.2-8.8c-0.3-0.6-0.6-1.2-0.9-1.8
	c-0.4-0.8-0.8-1.7-1.2-2.5c-2.2-4.2-3.9-8-8-12.1c-4.2-4.2-7.9-5.9-12.1-8c-4.2-2.2-8.8-4.3-13.1-6.4s-8.4-4.1-11.2-5.8
	c-1-0.6-1.7-1.2-2.3-1.7c-0.1-0.7-0.3-1.6-0.3-2.7c-0.1-3.3,0.2-7.9,0.6-12.6c0.4-4.8,0.8-9.8,1.1-14.5c0.2-4.8,0.6-8.8-0.9-14.5
	c-1.5-5.7-3.9-9-6.5-13s-5.5-8.2-8.2-12.1c-2.7-3.9-5.2-7.8-6.8-10.6c-0.6-1-0.9-1.8-1.1-2.5c0.2-0.7,0.6-1.5,1.1-2.5
	c1.6-2.9,4.1-6.7,6.8-10.6c2.7-3.9,5.6-8,8.2-12s5-7.4,6.5-13c1.5-5.7,1.1-9.8,0.9-14.6c-0.2-4.8-0.7-9.7-1.1-14.5
	c-0.4-4.8-0.6-9.3-0.6-12.6c0-1.2,0.2-2.1,0.3-2.8c0.6-0.5,1.3-1.1,2.2-1.7c2.8-1.7,6.9-3.7,11.2-5.8c4.3-2.1,8.9-4.1,13.1-6.3
	s7.9-3.9,12.1-8.1c4.2-4.2,5.9-7.9,8-12.1c2.2-4.2,4.3-8.9,6.4-13.2s4.1-8.3,5.8-11.1c0.6-1,1.2-1.7,1.7-2.3
	c0.7-0.1,1.6-0.3,2.7-0.3c3.3-0.1,7.8,0.2,12.5,0.6c4.8,0.4,9.9,0.8,14.6,1.1c4.8,0.2,8.8,0.5,14.5-1c5.7-1.5,9-3.9,13-6.5
	s8.1-5.4,12-8.1c3.9-2.7,7.8-5.2,10.6-6.8C298.1,93.7,299,93.4,299.7,93.2L299.7,93.2z M299.7,132c-69.8,0-126.6,56.8-126.6,126.6
	s56.8,126.6,126.6,126.6s126.6-56.8,126.6-126.6S369.4,132,299.7,132z M299.7,160c54.6,0,98.6,44,98.6,98.6s-44,98.6-98.6,98.6
	s-98.6-43.9-98.6-98.6S245,160,299.7,160z M241.5,210.2c-4.1,0.1-8,2-10.5,5.2s-3.6,7.4-2.8,11.4l13.4,69c1.3,6.6,7,11.4,13.8,11.4
	H344c6.7,0,12.5-4.8,13.8-11.4l13.4-69c1.1-5.6-1.3-11.3-6.1-14.4c-4.8-3.1-10.9-3-15.6,0.2L324,230.2l-13.8-15.5
	c-2.7-2.9-6.5-4.6-10.4-4.5c-4,0-7.8,1.6-10.4,4.5l-13.8,15.5l-25.5-17.6C247.4,211,244.5,210.1,241.5,210.2L241.5,210.2z
	 M299.7,245.1l11.8,13c4.7,5.2,12.5,6.1,18.3,2.2l7.3-5.1l-4.6,24h-65.5l-4.6-24l7.3,5.1c5.8,4,13.6,3,18.3-2.2L299.7,245.1z
	 M191.6,414.6c2.5,4.2,4.8,8.4,11.1,12c6.5,3.8,11.4,3.5,16.5,3.6c5.1,0.1,10.2-0.3,15.3-0.7c5-0.4,10-0.8,13.8-1c0.8,0,1.6,0,2.3,0
	l-39.6,68.6l-11.5-22.8c-2.5-5-7.8-8-13.3-7.7l-25.5,1.6L191.6,414.6z M407.8,414.6l31,53.6l-25.5-1.6c-5.6-0.3-10.8,2.7-13.3,7.7
	l-11.5,22.8l-39.6-68.6c0.7,0,1.5,0,2.3,0c3.8,0.2,8.7,0.6,13.8,1c5,0.4,10.2,0.8,15.3,0.7c5.1-0.1,9.9,0.1,16.4-3.6
	C402.9,423,405.2,418.8,407.8,414.6L407.8,414.6z"/>
</svg>
