<?xml version="1.0" encoding="utf-8"?>
<!-- Generator: Adobe Illustrator 24.1.0, SVG Export Plug-In . SVG Version: 6.00 Build 0)  -->
<svg version="1.1" id="Capa_1" xmlns="http://www.w3.org/2000/svg" xmlns:xlink="http://www.w3.org/1999/xlink" x="0px" y="0px"
	 viewBox="0 0 600 600" style="enable-background:new 0 0 600 600;" xml:space="preserve">
<g>
	<path d="M184.7,396.1l-66.8,66.8c-4.4,4.4-11.5,4.4-15.8,0c-2.2-2.2-3.3-5.1-3.3-7.9v-71.8c-15.6-2.4-29.7-9.9-40.5-20.6
		c-13.3-13.2-21.5-31.6-21.5-51.7V173.7c0-20.1,8.2-38.4,21.5-51.7c13.3-13.3,31.6-21.5,51.7-21.5h236c20.1,0,38.4,8.2,51.7,21.5
		c10.8,10.8,18.2,24.8,20.6,40.5H490c20.1,0,38.4,8.2,51.7,21.5c13.3,13.3,21.5,31.6,21.5,51.7v137.2c0,20.1-8.2,38.4-21.5,51.7
		c-10.8,10.8-24.8,18.2-40.5,20.6V517c0,2.9-1.1,5.7-3.3,7.9c-4.4,4.4-11.5,4.4-15.8,0l-78.8-78.8H254c-20.1,0-38.4-8.2-51.7-21.5
		C194.4,416.7,188.3,407,184.7,396.1L184.7,396.1z M304.3,218.4c13.2,0,23.9,10.7,23.9,23.9c0,13.2-10.7,23.9-23.9,23.9
		c-13.2,0-23.9-10.7-23.9-23.9S291.1,218.4,304.3,218.4z M228,218.4c13.2,0,23.9,10.7,23.9,23.9c0,13.2-10.7,23.9-23.9,23.9
		c-13.2,0-23.9-10.7-23.9-23.9S214.8,218.4,228,218.4z M151.6,218.4c13.2,0,23.9,10.7,23.9,23.9c0,13.2-10.7,23.9-23.9,23.9
		c-13.2,0-23.9-10.7-23.9-23.9S138.4,218.4,151.6,218.4z M419.1,184.9v126c0,20.1-8.2,38.4-21.5,51.7l-0.6,0.6
		c-13.2,12.9-31.3,20.9-51.1,20.9H204.5c2.2,9.5,7,18,13.7,24.6c9.2,9.2,21.9,14.9,35.9,14.9h153.8c3.2,0,6.1,1.4,8.2,3.5l62.8,62.8
		v-55.1c0-6.2,5-11.2,11.2-11.2c14,0,26.7-5.7,35.9-14.9c9.2-9.2,14.9-21.9,14.9-35.9V235.7c0-13.9-5.7-26.7-14.9-35.9
		c-9.2-9.2-21.9-14.9-35.9-14.9L419.1,184.9L419.1,184.9z M121.2,428l62.6-62.6c2.1-2.2,4.8-3.7,8.3-3.7h153.8
		c13.7,0,26.2-5.5,35.4-14.4l0.5-0.5c9.2-9.2,14.9-21.9,14.9-35.9V173.7c0-13.9-5.7-26.7-14.9-35.9c-9.2-9.2-21.9-14.9-35.9-14.9
		H110c-13.9,0-26.7,5.7-35.9,14.9c-9.2,9.2-14.9,21.9-14.9,35.9v137.2c0,14,5.7,26.7,14.9,35.9c9.2,9.2,21.9,14.9,35.9,14.9
		c6.2,0,11.2,5,11.2,11.2L121.2,428L121.2,428z"/>
</g>
</svg>
