<?xml version="1.0" encoding="utf-8"?>
<!-- Generator: Adobe Illustrator 24.1.0, SVG Export Plug-In . SVG Version: 6.00 Build 0)  -->
<svg version="1.1" id="Capa_1" xmlns="http://www.w3.org/2000/svg" xmlns:xlink="http://www.w3.org/1999/xlink" x="0px" y="0px"
	 viewBox="0 0 600 600" style="enable-background:new 0 0 600 600;" xml:space="preserve">
<g>
	<path d="M562.5,478.5H524c-9.3,0-17.5,8.2-17.5,17.5s8.2,17.5,17.5,17.5h38.5c9.3,0,17.5-8.2,17.5-17.5S571.8,478.5,562.5,478.5z"
		/>
	<path d="M20,478.5h35v35H20V478.5z"/>
	<path d="M545,71.3H55c-19.8,0-35,15.2-35,35v289.3c0,19.8,15.2,35,35,35h490c19.8,0,35-15.2,35-35V106.3
		C580,87.7,564.8,71.3,545,71.3z M533.3,384H66.7V118h466.7L533.3,384z"/>
	<path d="M268.5,328l87.5-59.5c11.7-8.2,11.7-25.7,0-33.8l-87.5-59.5c-14-9.3-32.7,0-32.7,17.5v119
		C235.8,326.8,254.5,337.3,268.5,328z"/>
	<path d="M91.2,496c0,9.3,7,16.3,16.3,16.3h37.3v-32.7l-37.3,0C98.2,479.7,91.2,486.7,91.2,496L91.2,496z"/>
	<path d="M457.5,479.7H221.8v32.7h235.7c9.3,0,16.3-7,16.3-16.3C473.8,486.7,466.8,479.7,457.5,479.7L457.5,479.7z"/>
	<path d="M183.3,464.5c-8.2,0-15.2,7-15.2,15.2v33.8c0,8.2,7,15.2,15.2,15.2s15.2-7,15.2-15.2v-33.8
		C198.5,470.3,191.5,464.5,183.3,464.5z"/>
</g>
</svg>
