<?xml version="1.0" encoding="utf-8"?>
<!-- Generator: Adobe Illustrator 24.1.0, SVG Export Plug-In . SVG Version: 6.00 Build 0)  -->
<svg version="1.1" id="Capa_1" xmlns="http://www.w3.org/2000/svg" xmlns:xlink="http://www.w3.org/1999/xlink" x="0px" y="0px"
	 viewBox="0 0 600 600" style="enable-background:new 0 0 600 600;" xml:space="preserve">
<g>
	<path d="M291.4,242.8c-17.5,0-31.8,14.3-31.8,31.8s14.3,31.8,31.8,31.8c17.5,0,31.8-14.3,31.8-31.8S308.9,242.8,291.4,242.8z"/>
	<path d="M122.1,157.7c-13.6,0-24.7,11.1-24.7,24.7c0,13.6,11.1,24.7,24.7,24.7s24.7-11.1,24.7-24.7
		C146.8,168.8,135.7,157.7,122.1,157.7z"/>
	<path d="M122.1,353.4c-13.6,0-24.7,11.1-24.7,24.7c0,13.6,11.1,24.7,24.7,24.7s24.7-11.1,24.7-24.7
		C146.8,364.5,135.7,353.4,122.1,353.4z"/>
	<path d="M266.4,475.4c0,13.6,11.1,24.7,24.7,24.7c13.6,0,24.7-11.1,24.7-24.7c0-13.6-11.1-24.7-24.7-24.7
		C277.5,450.7,266.4,461.8,266.4,475.4z"/>
	<path d="M461.7,341.2c-18.2,0-34.4,8.6-44.8,21.9l-58.6-32.2c0,0,0,0,0,0c0.5-1.1,1-2.3,1.5-3.4c0-0.1,0.1-0.2,0.1-0.3
		c0.4-1.1,0.8-2.1,1.2-3.2c0.1-0.2,0.1-0.4,0.2-0.6c0.3-1,0.6-2,0.9-3c0.1-0.3,0.1-0.5,0.2-0.8c0.3-0.9,0.5-1.9,0.7-2.9
		c0.1-0.3,0.2-0.6,0.2-1c0.2-0.9,0.4-1.8,0.5-2.7c0.1-0.4,0.1-0.8,0.2-1.1c0.1-0.9,0.3-1.8,0.4-2.7c0.1-0.4,0.1-0.8,0.2-1.2
		c0.1-0.9,0.2-1.9,0.2-2.8c0-0.4,0.1-0.7,0.1-1.1c0.1-1.3,0.1-2.6,0.1-3.9c0-11-2.5-21.4-6.8-30.8l58.6-32.2
		c10.4,13.3,26.6,21.9,44.8,21.9c31.3,0,56.8-25.5,56.8-56.8s-25.5-56.8-56.8-56.8c-31.3,0-56.8,25.5-56.8,56.8
		c0,9.6,2.4,18.7,6.7,26.7l-57.9,31.8c-12.2-18.9-32.8-31.9-56.6-33.5v-65.9c29-2.5,51.9-26.9,51.9-56.6c0-31.3-25.5-56.8-56.8-56.8
		c-31.3,0-56.8,25.5-56.8,56.8c0,29.7,22.9,54.1,51.9,56.6v65.9c-23.8,1.6-44.4,14.5-56.6,33.5l-57.9-31.8c4.3-8,6.7-17.1,6.7-26.7
		c0-31.3-25.5-56.8-56.8-56.8c-31.3,0-56.8,25.5-56.8,56.8S91.4,259,122.7,259c18.2,0,34.4-8.6,44.8-21.9l58.6,32.2
		c-4.4,9.4-6.8,19.8-6.8,30.8c0,1.3,0,2.6,0.1,3.9c0,0.4,0.1,0.7,0.1,1.1c0.1,0.9,0.1,1.9,0.2,2.8c0,0.4,0.1,0.8,0.2,1.2
		c0.1,0.9,0.2,1.8,0.4,2.7c0.1,0.4,0.1,0.8,0.2,1.1c0.2,0.9,0.3,1.8,0.5,2.7c0.1,0.3,0.2,0.7,0.2,1c0.2,1,0.5,1.9,0.7,2.8
		c0.1,0.3,0.2,0.5,0.2,0.8c0.3,1,0.6,2,0.9,3c0.1,0.2,0.1,0.4,0.2,0.6c0.4,1.1,0.8,2.1,1.2,3.1c0.1,0.1,0.1,0.3,0.2,0.4
		c0.5,1.1,0.9,2.2,1.4,3.3c0,0,0,0.1,0.1,0.1l-58.6,32.2c-10.4-13.3-26.6-21.9-44.8-21.9c-31.3,0-56.8,25.5-56.8,56.8
		c0,31.3,25.5,56.8,56.8,56.8c31.3,0,56.8-25.5,56.8-56.8c0-9.6-2.4-18.7-6.7-26.7l57.9-31.8c0,0,0,0,0,0
		c3.8,5.9,8.4,11.2,13.6,15.8c0,0,0.1,0.1,0.1,0.1c4.2,3.6,8.8,6.8,13.8,9.4c0,0,0,0,0.1,0c1.2,0.6,2.4,1.2,3.7,1.8
		c0.1,0,0.2,0.1,0.3,0.1c1.2,0.6,2.5,1.1,3.8,1.6c0,0,0,0,0.1,0c4,1.5,8.1,2.7,12.4,3.5c0,0,0,0,0.1,0c1.4,0.3,2.7,0.5,4.1,0.7
		c0.1,0,0.2,0,0.3,0c1.4,0.2,2.8,0.3,4.2,0.4c0,0,0,0,0.1,0v65.8c-29.2,2.3-52.3,26.8-52.3,56.6c0,31.3,25.5,56.8,56.8,56.8
		s56.8-25.5,56.8-56.8c0-29.5-22.6-53.8-51.5-56.5l0-65.8c0,0,0,0,0.1,0c1.4-0.1,2.8-0.2,4.2-0.4c0.1,0,0.2,0,0.3,0
		c1.4-0.2,2.8-0.4,4.1-0.7c0,0,0,0,0.1,0c4.3-0.8,8.4-2,12.4-3.5c0,0,0,0,0,0c1.3-0.5,2.5-1,3.8-1.6c0.1,0,0.2-0.1,0.2-0.1
		c1.3-0.6,2.5-1.2,3.7-1.8c0,0,0,0,0,0c5-2.6,9.6-5.8,13.8-9.4c0,0,0.1-0.1,0.1-0.1c5.3-4.6,9.9-9.9,13.7-15.8c0,0,0,0,0,0
		l57.9,31.8c-4.3,8-6.7,17.1-6.7,26.7c0,31.3,25.5,56.8,56.8,56.8c31.3,0,56.8-25.5,56.8-56.8C518.5,366.6,493,341.2,461.7,341.2
		L461.7,341.2z M411.6,202.2c0-27.7,22.4-50.1,50.1-50.1c27.7,0,50.1,22.4,50.1,50.1c0,9.6-2.7,18.6-7.4,26.2
		c-2.2-8.4-20.7-15-43.3-15c-21.4,0-39.1,5.9-42.8,13.6C414,219.8,411.6,211.3,411.6,202.2L411.6,202.2z M165.4,228.4
		c-2.2-8.4-20.8-15-43.3-15c-21.4,0-39.1,5.9-42.8,13.6c-4.2-7.3-6.6-15.8-6.6-24.9c0-27.7,22.4-50.1,50.1-50.1s50.1,22.4,50.1,50.1
		C172.8,211.8,170.1,220.8,165.4,228.4L165.4,228.4z M172.8,397.9c0,9.6-2.7,18.6-7.4,26.2c-2.2-8.4-20.8-15-43.3-15
		c-21.4,0-39.1,5.9-42.8,13.6c-4.2-7.3-6.6-15.8-6.6-24.9c0-27.7,22.4-50.1,50.1-50.1S172.8,370.2,172.8,397.9L172.8,397.9z
		 M248.8,129.7c-4.2-7.3-6.6-15.8-6.6-24.9c0-27.7,22.4-50.1,50.1-50.1s50.1,22.4,50.1,50.1c0,9.6-2.7,18.6-7.4,26.2
		c-2.2-8.4-20.8-15-43.3-15C270.2,116,252.5,121.9,248.8,129.7L248.8,129.7z M341.9,495.2c0,9.6-2.7,18.6-7.4,26.2
		c-2.2-8.4-20.8-15-43.3-15c-21.4,0-39.1,5.9-42.8,13.6c-4.2-7.3-6.6-15.8-6.6-24.9c0-27.7,22.4-50.1,50.1-50.1
		C319.5,445.1,341.9,467.6,341.9,495.2L341.9,495.2z M347.1,333.8c-2.8-10.8-26.7-19.2-55.7-19.2c-27.5,0-50.3,7.6-55.1,17.5
		c-5.4-9.4-8.5-20.4-8.5-32c0-35.6,28.8-64.4,64.4-64.4c35.6,0,64.4,28.8,64.4,64.4C356.6,312.4,353.1,324,347.1,333.8L347.1,333.8z
		 M504.4,424.1c-2.2-8.4-20.7-15-43.3-15c-21.4,0-39.1,5.9-42.8,13.6c-4.2-7.3-6.6-15.8-6.6-24.9c0-27.7,22.4-50.1,50.1-50.1
		c27.7,0,50.1,22.4,50.1,50.1C511.8,407.5,509.1,416.5,504.4,424.1L504.4,424.1z"/>
	<path d="M461.1,353.4c-13.6,0-24.7,11.1-24.7,24.7c0,13.6,11.1,24.7,24.7,24.7c13.6,0,24.7-11.1,24.7-24.7S474.7,353.4,461.1,353.4
		z"/>
	<path d="M461.1,207.2c13.6,0,24.7-11.1,24.7-24.7c0-13.6-11.1-24.7-24.7-24.7c-13.6,0-24.7,11.1-24.7,24.7
		C436.3,196.1,447.4,207.2,461.1,207.2z"/>
	<path d="M316.3,85c0-13.6-11.1-24.7-24.7-24.7S266.9,71.3,266.9,85c0,13.6,11.1,24.7,24.7,24.7C305.2,109.7,316.3,98.6,316.3,85z"
		/>
</g>
</svg>
