<?xml version="1.0" encoding="utf-8"?>
<!-- Generator: Adobe Illustrator 24.1.0, SVG Export Plug-In . SVG Version: 6.00 Build 0)  -->
<svg version="1.1" id="Capa_1" xmlns="http://www.w3.org/2000/svg" xmlns:xlink="http://www.w3.org/1999/xlink" x="0px" y="0px"
	 viewBox="0 0 600 600" style="enable-background:new 0 0 600 600;" xml:space="preserve">
<g>
	<path d="M332,162.5c0,17.9-14.5,32.4-32.4,32.4s-32.4-14.5-32.4-32.4c0-17.9,14.5-32.4,32.4-32.4S332,144.6,332,162.5"/>
	<path d="M136,278.1c0,13.9-11.3,25.2-25.2,25.2c-13.9,0-25.2-11.3-25.2-25.2c0-13.9,11.3-25.2,25.2-25.2
		C124.7,252.9,136,264.2,136,278.1"/>
	<path d="M324.3,386.5c0,13.9-11.3,25.2-25.2,25.2c-13.9,0-25.2-11.3-25.2-25.2c0-13.9,11.3-25.2,25.2-25.2
		C313,361.3,324.3,372.6,324.3,386.5"/>
	<path d="M488.3,238c-20.2,0-38.3,9.6-49.8,24.4l-65.2-35.8c0,0,0,0,0-0.1c0.6-1.2,1.1-2.5,1.6-3.8c0.1-0.1,0.1-0.3,0.2-0.4
		c0.5-1.2,0.9-2.3,1.3-3.5c0.1-0.2,0.2-0.5,0.2-0.7c0.4-1.1,0.7-2.2,1-3.3c0.1-0.3,0.2-0.6,0.3-0.9c0.3-1,0.5-2.1,0.8-3.1
		c0.1-0.4,0.2-0.8,0.3-1.1c0.2-1,0.4-2,0.6-3c0.1-0.4,0.2-0.9,0.2-1.3c0.2-1,0.3-2,0.4-3c0.1-0.5,0.1-0.9,0.2-1.4
		c0.1-1,0.2-2.1,0.3-3.1c0-0.4,0.1-0.9,0.1-1.3c0.1-1.5,0.1-2.9,0.1-4.4c0-12.3-2.7-23.9-7.6-34.3c-1.5-3.3-3.3-6.5-5.2-9.5
		c-13.6-21.1-36.6-35.6-63-37.3c-1.8-0.1-3.6-0.2-5.4-0.2s-3.6,0.1-5.4,0.2c-26.5,1.8-49.5,16.2-63,37.3c-1.9,3-3.7,6.2-5.2,9.5
		c-4.9,10.4-7.6,22.1-7.6,34.3c0,1.5,0,2.9,0.1,4.4c0,0.4,0.1,0.9,0.1,1.3c0.1,1,0.2,2.1,0.3,3.1c0.1,0.5,0.1,0.9,0.2,1.4
		c0.1,1,0.3,2,0.4,3c0.1,0.4,0.2,0.9,0.2,1.3c0.2,1,0.4,2,0.6,3c0.1,0.4,0.2,0.8,0.3,1.1c0.2,1,0.5,2.1,0.8,3.1
		c0.1,0.3,0.2,0.6,0.3,1c0.3,1.1,0.7,2.2,1,3.3c0.1,0.2,0.2,0.5,0.2,0.7c0.4,1.2,0.8,2.3,1.3,3.5c0.1,0.2,0.1,0.3,0.2,0.5
		c0.5,1.3,1,2.5,1.6,3.7c0,0,0,0.1,0,0.1l-65.2,35.8C149,247.6,131,238,110.8,238c-34.9,0-63.2,28.4-63.2,63.2
		c0,34.9,28.4,63.2,63.2,63.2c34.9,0,63.2-28.4,63.2-63.2c0-10.7-2.7-20.9-7.4-29.7l64.5-35.5c0,0,0,0,0,0.1
		c4.2,6.5,9.3,12.4,15.1,17.5c0.1,0.1,0.1,0.1,0.2,0.2c1.1,1,2.3,1.9,3.5,2.9c0,0,0,0,0,0c3.7,2.9,7.7,5.4,11.8,7.6c0,0,0.1,0,0.1,0
		c1.3,0.7,2.7,1.3,4,2c0.1,0.1,0.2,0.1,0.3,0.1c1.4,0.6,2.8,1.2,4.2,1.7c0,0,0.1,0,0.1,0c4.4,1.7,9,3,13.8,3.9c0,0,0.1,0,0.1,0
		c1.5,0.3,3.1,0.5,4.6,0.7c0.1,0,0.2,0,0.3,0c1.5,0.2,3.1,0.3,4.7,0.5c0,0,0,0,0.1,0v73.2c-32.6,2.5-58.3,29.8-58.3,63
		c0,34.9,28.4,63.2,63.2,63.2c34.9,0,63.2-28.4,63.2-63.2c0-32.9-25.2-60-57.3-63v-73.3c0,0,0,0,0.1,0c1.6-0.1,3.1-0.3,4.7-0.5
		c0.1,0,0.2,0,0.3,0c1.5-0.2,3.1-0.4,4.6-0.7c0,0,0.1,0,0.1,0c4.8-0.9,9.4-2.2,13.8-3.9c0,0,0,0,0.1,0c1.4-0.5,2.8-1.1,4.2-1.8
		c0.1,0,0.2-0.1,0.3-0.1c1.4-0.6,2.7-1.3,4.1-2c0,0,0,0,0.1,0c5.5-2.9,10.7-6.4,15.4-10.5c0,0,0.1-0.1,0.1-0.1
		c5.9-5.1,11-11,15.2-17.6c0,0,0,0,0,0l64.5,35.5c-4.8,8.9-7.4,19-7.4,29.7c0,34.9,28.4,63.2,63.2,63.2c34.9,0,63.2-28.4,63.2-63.3
		C551.5,266.4,523.2,238,488.3,238L488.3,238z M166.6,301.2c0,12.8-4.3,24.6-11.6,34.1c-0.8-14.5-12.1-26.3-26.4-27.6H93
		c-14.4,1.3-25.7,13-26.4,27.6c-7.3-9.4-11.6-21.2-11.6-34.1c0-30.8,25-55.8,55.8-55.8C141.6,245.4,166.6,270.4,166.6,301.2
		L166.6,301.2z M354.8,409.6c0,12.8-4.3,24.6-11.6,34.1c-0.7-14.5-12.1-26.3-26.4-27.6h-35.5c-14.4,1.3-25.7,13-26.4,27.6
		c-7.3-9.4-11.6-21.2-11.6-34.1c0-30.8,25-55.8,55.8-55.8C329.9,353.8,354.8,378.8,354.8,409.6L354.8,409.6z M356.3,236.1
		c-1-18.7-15.5-33.8-34-35.4h-45.6c-18.5,1.7-33,16.8-34,35.4c-9.4-12.1-14.9-27.3-14.9-43.8c0-39.6,32.1-71.7,71.7-71.7
		c39.6,0,71.7,32.1,71.7,71.7C371.3,208.8,365.7,223.9,356.3,236.1z M532.5,335.3c-0.8-14.5-12.1-26.3-26.5-27.6h-35.5
		c-14.4,1.3-25.7,13-26.5,27.6c-7.3-9.4-11.6-21.2-11.6-34.1c0-30.8,25-55.8,55.8-55.8s55.8,25,55.8,55.8
		C544.1,314.1,539.7,325.9,532.5,335.3L532.5,335.3z"/>
	<path d="M513.5,278.1c0,13.9-11.3,25.2-25.2,25.2c-13.9,0-25.2-11.3-25.2-25.2c0-13.9,11.3-25.2,25.2-25.2
		C502.2,252.9,513.5,264.2,513.5,278.1"/>
</g>
</svg>
